<?xml version="1.0" standalone="no"?>
<!DOCTYPE svg PUBLIC "-//W3C//DTD SVG 20010904//EN"
 "http://www.w3.org/TR/2001/REC-SVG-20010904/DTD/svg10.dtd">
<svg version="1.0" xmlns="http://www.w3.org/2000/svg"
 width="512.000000pt" height="512.000000pt" viewBox="0 0 512.000000 512.000000"
 preserveAspectRatio="xMidYMid meet">
<metadata>
Created by potrace 1.14, written by Peter Selinger 2001-2017
</metadata>
<g transform="translate(0.000000,512.000000) scale(0.100000,-0.100000)"
fill="#000000" stroke="none">
<path d="M1639 4666 c-2 -2 -25 -7 -50 -10 -59 -8 -169 -48 -207 -75 -17 -12
-35 -21 -41 -21 -17 0 -194 -181 -211 -215 -8 -16 -19 -37 -25 -45 -14 -19
-53 -124 -60 -165 -9 -50 -46 -258 -51 -290 -3 -16 -14 -82 -25 -145 -25 -145
-26 -146 -44 -255 -9 -49 -18 -101 -20 -115 -3 -14 -9 -52 -15 -85 -16 -102
-50 -278 -53 -281 -1 -2 -19 13 -40 32 -36 34 -37 38 -38 107 -1 124 -17 162
-88 212 l-43 30 -204 2 c-215 2 -231 0 -293 -45 -102 -75 -86 -246 31 -312 39
-22 53 -24 212 -25 l170 -1 88 -87 c48 -48 88 -91 88 -96 0 -5 -14 -14 -31
-21 -43 -18 -178 -154 -223 -225 -38 -58 -83 -165 -93 -215 -2 -14 -22 -113
-43 -220 -22 -107 -41 -206 -44 -220 -2 -14 -21 -106 -40 -205 -20 -99 -39
-193 -42 -210 -15 -89 -20 -100 -49 -114 -83 -38 -105 -85 -105 -221 0 -110
11 -147 58 -188 38 -33 58 -36 264 -36 l186 -1 1 -171 c1 -182 5 -206 42 -240
47 -42 60 -44 314 -44 263 0 288 4 332 51 32 35 39 86 37 252 -1 81 1 148 5
148 3 1 563 2 1244 3 1094 1 1237 -1 1238 -14 1 -8 1 -83 0 -165 -2 -140 0
-153 21 -194 41 -78 55 -81 341 -81 276 0 297 4 340 64 21 29 22 41 22 209 0
97 2 178 5 178 3 1 104 2 225 3 254 2 282 9 322 81 19 34 23 55 23 143 0 138
-21 184 -104 223 -27 13 -31 21 -52 129 -13 63 -25 126 -28 140 -2 14 -22 115
-44 225 -23 110 -43 214 -46 230 -39 222 -81 365 -132 446 -59 94 -200 233
-253 251 -10 3 16 35 79 98 l95 95 165 1 c111 1 175 5 195 14 17 7 33 13 37
12 9 -2 61 67 76 101 15 34 15 70 2 119 -14 50 -51 92 -104 116 -40 19 -60 21
-249 19 l-205 -2 -43 -30 c-65 -46 -81 -81 -88 -194 -6 -96 -6 -96 -45 -133
-22 -21 -40 -38 -41 -38 -2 0 -24 118 -41 220 -14 88 -87 508 -99 570 -8 41
-16 89 -19 105 -3 17 -10 59 -16 95 -6 36 -13 76 -15 90 -11 66 -16 89 -30
144 -45 173 -204 355 -378 435 -128 58 -79 55 -1103 58 -517 2 -942 1 -945 -1z"/>
</g>
</svg>
